{"accessors":[{"bufferView":1,"componentType":5126,"count":15450,"max":[16.893878936767578,12.460137367248535,18.026643753051758],"min":[0,0,0],"type":"VEC3"},{"bufferView":1,"byteOffset":185400,"componentType":5126,"count":15450,"max":[1,1,0.99999886751174927],"min":[-1,-0.9999997615814209,-0.99999874830245972],"type":"VEC3"},{"bufferView":0,"componentType":5125,"count":64752,"max":[15449],"min":[0],"type":"SCALAR"}],"asset":{"generator":"Sketchfab (OSG glTF plugin)","version":"2.0"},"bufferViews":[{"buffer":0,"byteLength":259008,"byteOffset":0,"name":"ScalarBufferView","target":34962},{"buffer":0,"byteLength":370800,"byteOffset":259008,"byteStride":12,"name":"Vec3BufferView","target":34962}],"buffers":[{"byteLength":629808,"uri":"scene.bin"}],"materials":[{"doubleSided":true,"emissiveFactor":[0,0,0],"name":"Scene - Root","pbrMetallicRoughness":{"baseColorFactor":[1,1,1,1],"metallicFactor":0,"roughnessFactor":0.59999999999999998}}],"meshes":[{"name":"Untitled-57839ce5","primitives":[{"attributes":{"NORMAL":1,"POSITION":0},"indices":2,"material":0,"mode":4}]}],"nodes":[{"children":[1],"name":"RootNode (gltf orientation matrix)","rotation":[-0.70710678118654746,-0,-0,0.70710678118654757]},{"children":[2],"name":"RootNode (model correction matrix)"},{"children":[3],"name":"Mercy T-Pose.stl.cleaner.gles"},{"mesh":0,"name":"Untitled-57839ce5"}],"scene":0,"scenes":[{"name":"OSG_Scene","nodes":[0]}]}
