{"accessors":[{"bufferView":2,"componentType":5126,"count":240,"max":[0.12202493101358414,-0.067291043698787689,0.2077411562204361],"min":[-0.12202505767345428,-0.55846983194351196,-0.18630579113960266],"type":"VEC3"},{"bufferView":2,"byteOffset":2880,"componentType":5126,"count":240,"max":[0.99746400117874146,0.23168644309043884,0.99601876735687256],"min":[-0.99887555837631226,-0.98517900705337524,-0.92884612083435059],"type":"VEC3"},{"bufferView":1,"componentType":5126,"count":240,"max":[2.0786499977111816,0.97406798601150513],"min":[-1.0718669891357422,0.086750000715255737],"type":"VEC2"},{"bufferView":3,"componentType":5126,"count":240,"max":[0.97821575403213501,0.99601924419403076,0.98517948389053345,1],"min":[-0.96672290563583374,-0.99841475486755371,-0.99681305885314941,-1],"type":"VEC4"},{"bufferView":0,"componentType":5125,"count":516,"max":[239],"min":[0],"type":"SCALAR"},{"bufferView":2,"byteOffset":5760,"componentType":5126,"count":983,"max":[0.10147392749786377,0.40653097629547119,0.22678317129611969],"min":[-0.10147406160831451,-0.61763662099838257,-0.34928685426712036],"type":"VEC3"},{"bufferView":2,"byteOffset":17556,"componentType":5126,"count":983,"max":[0.99856662750244141,0.98765736818313599,0.99999946355819702],"min":[-0.99856662750244141,-0.99132794141769409,-0.99901080131530762],"type":"VEC3"},{"bufferView":1,"byteOffset":1920,"componentType":5126,"count":983,"max":[0.9844520092010498,0.98954898118972778],"min":[0.019905000925064087,0.02389100007712841],"type":"VEC2"},{"bufferView":3,"byteOffset":3840,"componentType":5126,"count":983,"max":[0.99556195735931396,1,0.9874538779258728,1],"min":[-0.9955640435218811,-0.99425256252288818,-0.99567711353302002,-1],"type":"VEC4"},{"bufferView":0,"byteOffset":2064,"componentType":5125,"count":5316,"max":[982],"min":[0],"type":"SCALAR"},{"bufferView":2,"byteOffset":29352,"componentType":5126,"count":98,"max":[0.028065904974937439,-0.54208576679229736,0.16027523577213287],"min":[-0.028066087514162064,-0.551402747631073,0.14830024540424347],"type":"VEC3"},{"bufferView":2,"byteOffset":30528,"componentType":5126,"count":98,"max":[0.99814790487289429,0.41375944018363953,0.99999231100082397],"min":[-0.99814790487289429,-0.9859086275100708,-0.99999362230300903],"type":"VEC3"},{"bufferView":1,"byteOffset":9784,"componentType":5126,"count":98,"max":[0.83204197883605957,0.83204197883605957],"min":[0.16795800626277924,0.16795800626277924],"type":"VEC2"},{"bufferView":3,"byteOffset":19568,"componentType":5126,"count":98,"max":[0.99910867214202881,0.99412113428115845,0.72128671407699585,1],"min":[-0.060223568230867386,-0.99424183368682861,-0.72128838300704956,-1],"type":"VEC4"},{"bufferView":0,"byteOffset":23328,"componentType":5125,"count":432,"max":[97],"min":[0],"type":"SCALAR"},{"bufferView":2,"byteOffset":31704,"componentType":5126,"count":130,"max":[0.093760155141353607,0.020335894078016281,-0.32357889413833618],"min":[-0.093759909272193909,-0.39673212170600891,-0.350786954164505],"type":"VEC3"},{"bufferView":2,"byteOffset":33264,"componentType":5126,"count":130,"max":[0.99328678846359253,0.83510935306549072,0.89285093545913696],"min":[-0.99328511953353882,-0.90170979499816895,-0.77629381418228149],"type":"VEC3"},{"bufferView":3,"byteOffset":21136,"componentType":5126,"count":130,"max":[0.87609183788299561,0.94653761386871338,0.98587733507156372,1],"min":[-0.87845569849014282,-0.88553911447525024,-0.97944915294647217,-1],"type":"VEC4"},{"bufferView":0,"byteOffset":25056,"componentType":5125,"count":192,"max":[129],"min":[0],"type":"SCALAR"},{"bufferView":2,"byteOffset":34824,"componentType":5126,"count":1089,"max":[0.018225910142064095,-0.52851176261901855,0.11521922051906586],"min":[-0.018226087093353271,-0.59639978408813477,0.087617270648479462],"type":"VEC3"},{"bufferView":2,"byteOffset":47892,"componentType":5126,"count":1089,"max":[0.99609839916229248,0.97834283113479614,0.91864520311355591],"min":[-0.99609845876693726,-0.93893522024154663,-0.88667756319046021],"type":"VEC3"},{"bufferView":3,"byteOffset":23216,"componentType":5126,"count":1089,"max":[0.96822285652160645,0.98545539379119873,0.99872416257858276,1],"min":[-0.97230362892150879,-0.98903083801269531,-0.99943703413009644,-1],"type":"VEC4"},{"bufferView":0,"byteOffset":25824,"componentType":5125,"count":1788,"max":[1088],"min":[0],"type":"SCALAR"},{"bufferView":2,"byteOffset":60960,"componentType":5126,"count":24,"max":[2.749596118927002,2.749596118927002,0],"min":[-2.749596118927002,-2.749596118927002,-0.40627598762512207],"type":"VEC3"},{"bufferView":2,"byteOffset":61248,"componentType":5126,"count":24,"max":[1,1,1],"min":[-1,-1,-1],"type":"VEC3"},{"bufferView":0,"byteOffset":32976,"componentType":5125,"count":36,"max":[23],"min":[0],"type":"SCALAR"}],"asset":{"generator":"Sketchfab (OSG glTF plugin)","version":"2.0"},"bufferViews":[{"buffer":0,"byteLength":33120,"byteOffset":0,"name":"ScalarBufferView","target":34962},{"buffer":0,"byteLength":10568,"byteOffset":33120,"byteStride":8,"name":"Vec2BufferView","target":34962},{"buffer":0,"byteLength":61536,"byteOffset":43688,"byteStride":12,"name":"Vec3BufferView","target":34962},{"buffer":0,"byteLength":40640,"byteOffset":105224,"byteStride":16,"name":"Vec4BufferView","target":34962}],"buffers":[{"byteLength":145864,"uri":"scene.bin"}],"extensionsRequired":["KHR_materials_pbrSpecularGlossiness"],"extensionsUsed":["KHR_materials_pbrSpecularGlossiness"],"images":[{"uri":"textures\/fur__fella3_jpg_001_diffuse.png"},{"uri":"textures\/fur__fella3_jpg_001_specularGlossiness.png"},{"uri":"textures\/fur__fella3_jpg_001_occlusion.png"},{"uri":"textures\/Material__wolf_col_tga_diffuse.jpg"},{"uri":"textures\/Material__wolf_col_tga_specularGlossiness.png"},{"uri":"textures\/Material__wolf_col_tga_occlusion.jpg"},{"uri":"textures\/eyes_diffuse.jpg"},{"uri":"textures\/eyes_specularGlossiness.jpg"},{"uri":"textures\/eyes_emissive.jpg"}],"materials":[{"doubleSided":true,"extensions":{"KHR_materials_pbrSpecularGlossiness":{"diffuseFactor":[0.48605874500000001,0.48605874500000001,0.48605874500000001,1],"diffuseTexture":{"index":0,"texCoord":0},"glossinessFactor":1,"specularFactor":[0,0,0],"specularGlossinessTexture":{"index":1,"texCoord":0}}},"name":"fur__fella3_jpg_001","occlusionTexture":{"index":2,"strength":1,"texCoord":0}},{"doubleSided":false,"emissiveFactor":[0,0,0],"extensions":{"KHR_materials_pbrSpecularGlossiness":{"diffuseFactor":[0.32000000000000001,0.32000000000000001,0.32000000000000001,1],"diffuseTexture":{"index":3,"texCoord":0},"glossinessFactor":0,"specularFactor":[0,0,0],"specularGlossinessTexture":{"index":4,"texCoord":0}}},"name":"Material__wolf_col_tga","occlusionTexture":{"index":5,"strength":0.53000000000000003,"texCoord":0}},{"doubleSided":false,"emissiveFactor":[0.40000000000000002,0.40000000000000002,0.40000000000000002],"emissiveTexture":{"index":8,"texCoord":0},"extensions":{"KHR_materials_pbrSpecularGlossiness":{"diffuseFactor":[0.62,0.62,0.62,1],"diffuseTexture":{"index":6,"texCoord":0},"glossinessFactor":0.40999999999999998,"specularFactor":[0.54000000000000004,0.54000000000000004,0.54000000000000004],"specularGlossinessTexture":{"index":7,"texCoord":0}}},"name":"eyes"},{"doubleSided":false,"extensions":{"KHR_materials_pbrSpecularGlossiness":{"diffuseFactor":[0.17343744827399998,0.129539550798,0.093593039508000006,1],"glossinessFactor":0.68999999999999995,"specularFactor":[0,0,0]}},"name":"claws"},{"doubleSided":false,"emissiveFactor":[0,0,0],"extensions":{"KHR_materials_pbrSpecularGlossiness":{"diffuseFactor":[0.17999999999999999,0.17999999999999999,0.17999999999999999,1],"glossinessFactor":0.37,"specularFactor":[0,0,0]}},"name":"teeth__nor2_tga"},{"doubleSided":true,"emissiveFactor":[0.16000000000000003,0.16000000000000003,0.16000000000000003],"extensions":{"KHR_materials_pbrSpecularGlossiness":{"diffuseFactor":[0.059999999999999998,0.059999999999999998,0.059999999999999998,1],"glossinessFactor":0.23999999999999999,"specularFactor":[0,0,0]}},"name":"unnamed"}],"meshes":[{"name":"Wolf2","primitives":[{"attributes":{"NORMAL":1,"POSITION":0,"TANGENT":3,"TEXCOORD_0":2},"indices":4,"material":0,"mode":4}]},{"name":"Wolf1","primitives":[{"attributes":{"NORMAL":6,"POSITION":5,"TANGENT":8,"TEXCOORD_0":7},"indices":9,"material":1,"mode":4}]},{"name":"Wolf3","primitives":[{"attributes":{"NORMAL":11,"POSITION":10,"TANGENT":13,"TEXCOORD_0":12},"indices":14,"material":2,"mode":4},{"attributes":{"NORMAL":16,"POSITION":15,"TANGENT":17},"indices":18,"material":3,"mode":4},{"attributes":{"NORMAL":20,"POSITION":19,"TANGENT":21},"indices":22,"material":4,"mode":4}]},{"name":"Plane","primitives":[{"attributes":{"NORMAL":24,"POSITION":23},"indices":25,"material":5,"mode":4}]}],"nodes":[{"children":[1],"name":"RootNode (gltf orientation matrix)","rotation":[-0.70710678118654746,-0,-0,0.70710678118654757]},{"children":[2],"name":"RootNode (model correction matrix)"},{"children":[3],"matrix":[1,0,0,0,0,0,1,0,0,-1,0,0,0,0,0,1],"name":"e4ef26d3d7a44d328db4b473b35c6be8.fbx"},{"children":[4],"name":""},{"children":[5],"name":"RootNode"},{"children":[6,8,10,12,14,15,16,17],"name":""},{"children":[7],"matrix":[1.0000000000000058,3.5101564439086146e-16,-9.4162751082446655e-15,0,-9.4162754010348665e-15,-1.048990717285175e-15,-1.0000000310940633,0,-3.510156553053701e-16,1.000000031094058,-1.0489907172851661e-15,0,-3.296992317750782e-16,0.0019012831451100526,-0.00033109921686986371,1],"name":""},{"mesh":0,"name":"Wolf2"},{"children":[9],"matrix":[1.0000000000000058,3.5101564439086146e-16,-9.4162751082446655e-15,0,-9.4162754010348665e-15,-1.048990717285175e-15,-1.0000000310940633,0,-3.510156553053701e-16,1.000000031094058,-1.0489907172851661e-15,0,-3.296992317750782e-16,0.0019012831451100526,-0.00033109921686986371,1],"name":""},{"mesh":1,"name":"Wolf1"},{"children":[11],"matrix":[1.0000000000000058,3.5101564439086146e-16,-9.4162751082446655e-15,0,-9.4162754010348665e-15,-1.048990717285175e-15,-1.0000000310940633,0,-3.510156553053701e-16,1.000000031094058,-1.0489907172851661e-15,0,-3.296992317750782e-16,0.0019012831451100526,-0.00033109921686986371,1],"name":""},{"mesh":2,"name":"Wolf3"},{"children":[13],"matrix":[1,0,0,0,0,-1.6291842253046696e-07,-0.99999999999998679,0,0,0.99999999999998679,-1.6291842253046696e-07,0,0,-0.348112553358078,0,1],"name":"Plane"},{"mesh":3,"name":"Plane"},{"matrix":[1,7.1034900556169206e-15,0,0,-7.1034900556169206e-15,1,0,0,0,0,1,0,0,0.00033110380172729492,0.001901283860206604,1],"name":"Wolf2"},{"matrix":[1,7.1034900556169206e-15,0,0,-7.1034900556169206e-15,1,0,0,0,0,1,0,0,0.00033110380172729492,0.001901283860206604,1],"name":"Wolf1"},{"matrix":[1,7.1034900556169206e-15,0,0,-7.1034900556169206e-15,1,0,0,0,0,1,0,0,0.00033110380172729492,0.001901283860206604,1],"name":"Wolf3"},{"children":[18],"matrix":[0.99151132396295949,0.12901517142100208,-0.016132600135833487,0,-0.082882004748026525,0.72276135834414479,0.68610975227981919,0,0.10017859326290954,-0.67894852709429121,0.72731915072295261,0,-0.84994888305664062,1.0013643503189087,0.91539812088012695,1],"name":"Hemi"},{"children":[19],"matrix":[1,0,0,0,0,2.2204460492503131e-16,1,0,0,-1,2.2204460492503131e-16,0,0,0,0,1],"name":""},{"name":""}],"samplers":[{"magFilter":9729,"minFilter":9987,"wrapS":10497,"wrapT":10497}],"scene":0,"scenes":[{"name":"OSG_Scene","nodes":[0]}],"textures":[{"sampler":0,"source":0},{"sampler":0,"source":1},{"sampler":0,"source":2},{"sampler":0,"source":3},{"sampler":0,"source":4},{"sampler":0,"source":5},{"sampler":0,"source":6},{"sampler":0,"source":7},{"sampler":0,"source":8}]}
